<mxfile host="65bd71144e" pages="5">
    <diagram id="OoM3TxMB1O6RM43bYx7U" name="file-upload">
        <mxGraphModel dx="718" dy="398" grid="1" gridSize="10" guides="1" tooltips="1" connect="1" arrows="1" fold="1" page="1" pageScale="1" pageWidth="850" pageHeight="1100" math="0" shadow="0">
            <root>
                <mxCell id="0"/>
                <mxCell id="1" parent="0"/>
                <mxCell id="C7J_mc7ecOZr3gbci45p-3" value="Client" style="shape=umlLifeline;perimeter=lifelinePerimeter;whiteSpace=wrap;html=1;container=1;collapsible=0;recursiveResize=0;outlineConnect=0;" parent="1" vertex="1">
                    <mxGeometry x="190" y="80" width="100" height="720" as="geometry"/>
                </mxCell>
                <mxCell id="C7J_mc7ecOZr3gbci45p-6" value="" style="html=1;points=[];perimeter=orthogonalPerimeter;" parent="C7J_mc7ecOZr3gbci45p-3" vertex="1">
                    <mxGeometry x="45" y="40" width="10" height="560" as="geometry"/>
                </mxCell>
                <mxCell id="C7J_mc7ecOZr3gbci45p-4" value="Server" style="shape=umlLifeline;perimeter=lifelinePerimeter;whiteSpace=wrap;html=1;container=1;collapsible=0;recursiveResize=0;outlineConnect=0;" parent="1" vertex="1">
                    <mxGeometry x="390" y="80" width="100" height="720" as="geometry"/>
                </mxCell>
                <mxCell id="C7J_mc7ecOZr3gbci45p-7" value="" style="html=1;points=[];perimeter=orthogonalPerimeter;" parent="C7J_mc7ecOZr3gbci45p-4" vertex="1">
                    <mxGeometry x="45" y="80" width="10" height="80" as="geometry"/>
                </mxCell>
                <mxCell id="C7J_mc7ecOZr3gbci45p-16" value="" style="html=1;points=[];perimeter=orthogonalPerimeter;" parent="C7J_mc7ecOZr3gbci45p-4" vertex="1">
                    <mxGeometry x="45" y="320" width="10" height="240" as="geometry"/>
                </mxCell>
                <mxCell id="C7J_mc7ecOZr3gbci45p-39" value="" style="html=1;points=[];perimeter=orthogonalPerimeter;labelBackgroundColor=none;fontFamily=Helvetica;fontSize=11;fontColor=#000000;" parent="C7J_mc7ecOZr3gbci45p-4" vertex="1">
                    <mxGeometry x="50" y="380" width="10" height="140" as="geometry"/>
                </mxCell>
                <mxCell id="C7J_mc7ecOZr3gbci45p-40" value="Generate preview URL" style="edgeStyle=orthogonalEdgeStyle;html=1;align=left;spacingLeft=2;endArrow=block;rounded=0;entryX=1;entryY=0;fontFamily=Helvetica;fontSize=11;fontColor=#000000;" parent="C7J_mc7ecOZr3gbci45p-4" target="C7J_mc7ecOZr3gbci45p-39" edge="1">
                    <mxGeometry relative="1" as="geometry">
                        <mxPoint x="55" y="360" as="sourcePoint"/>
                        <Array as="points">
                            <mxPoint x="85" y="360"/>
                        </Array>
                    </mxGeometry>
                </mxCell>
                <mxCell id="C7J_mc7ecOZr3gbci45p-5" value="AWS S3" style="shape=umlLifeline;perimeter=lifelinePerimeter;whiteSpace=wrap;html=1;container=1;collapsible=0;recursiveResize=0;outlineConnect=0;" parent="1" vertex="1">
                    <mxGeometry x="590" y="80" width="100" height="720" as="geometry"/>
                </mxCell>
                <mxCell id="C7J_mc7ecOZr3gbci45p-13" value="" style="html=1;points=[];perimeter=orthogonalPerimeter;" parent="C7J_mc7ecOZr3gbci45p-5" vertex="1">
                    <mxGeometry x="45" y="200" width="10" height="80" as="geometry"/>
                </mxCell>
                <mxCell id="C7J_mc7ecOZr3gbci45p-8" value="POST /preupload" style="html=1;verticalAlign=bottom;endArrow=block;entryX=0;entryY=0;rounded=0;" parent="1" source="C7J_mc7ecOZr3gbci45p-6" target="C7J_mc7ecOZr3gbci45p-7" edge="1">
                    <mxGeometry relative="1" as="geometry">
                        <mxPoint x="365" y="150" as="sourcePoint"/>
                    </mxGeometry>
                </mxCell>
                <mxCell id="C7J_mc7ecOZr3gbci45p-9" value="signed-url, key" style="html=1;verticalAlign=bottom;endArrow=open;dashed=1;endSize=8;exitX=0;exitY=0.95;rounded=0;" parent="1" source="C7J_mc7ecOZr3gbci45p-7" target="C7J_mc7ecOZr3gbci45p-6" edge="1">
                    <mxGeometry relative="1" as="geometry">
                        <mxPoint x="365" y="226" as="targetPoint"/>
                    </mxGeometry>
                </mxCell>
                <mxCell id="C7J_mc7ecOZr3gbci45p-14" value="PATCH /signed-url" style="html=1;verticalAlign=bottom;endArrow=block;entryX=0;entryY=0;rounded=0;" parent="1" source="C7J_mc7ecOZr3gbci45p-6" target="C7J_mc7ecOZr3gbci45p-13" edge="1">
                    <mxGeometry relative="1" as="geometry">
                        <mxPoint x="565" y="280" as="sourcePoint"/>
                    </mxGeometry>
                </mxCell>
                <mxCell id="C7J_mc7ecOZr3gbci45p-15" value="OK" style="html=1;verticalAlign=bottom;endArrow=open;dashed=1;endSize=8;exitX=0;exitY=0.95;rounded=0;" parent="1" source="C7J_mc7ecOZr3gbci45p-13" target="C7J_mc7ecOZr3gbci45p-6" edge="1">
                    <mxGeometry relative="1" as="geometry">
                        <mxPoint x="565" y="356" as="targetPoint"/>
                    </mxGeometry>
                </mxCell>
                <mxCell id="C7J_mc7ecOZr3gbci45p-17" value="POST /postupload" style="html=1;verticalAlign=bottom;endArrow=block;entryX=0;entryY=0;rounded=0;" parent="1" source="C7J_mc7ecOZr3gbci45p-6" target="C7J_mc7ecOZr3gbci45p-16" edge="1">
                    <mxGeometry relative="1" as="geometry">
                        <mxPoint x="365" y="400" as="sourcePoint"/>
                    </mxGeometry>
                </mxCell>
                <mxCell id="C7J_mc7ecOZr3gbci45p-18" value="OK" style="html=1;verticalAlign=bottom;endArrow=open;dashed=1;endSize=8;exitX=0;exitY=0.95;rounded=0;" parent="1" source="C7J_mc7ecOZr3gbci45p-16" target="C7J_mc7ecOZr3gbci45p-6" edge="1">
                    <mxGeometry relative="1" as="geometry">
                        <mxPoint x="365" y="476" as="targetPoint"/>
                    </mxGeometry>
                </mxCell>
                <mxCell id="C7J_mc7ecOZr3gbci45p-24" value="It is the responsibility of the client to invoke the `postupload` method for the server to save the file and run side effects." style="text;html=1;strokeColor=none;fillColor=none;align=center;verticalAlign=middle;whiteSpace=wrap;rounded=0;" parent="1" vertex="1">
                    <mxGeometry x="30" y="360" width="190" height="80" as="geometry"/>
                </mxCell>
                <mxCell id="C7J_mc7ecOZr3gbci45p-28" value="DB" style="shape=umlLifeline;perimeter=lifelinePerimeter;whiteSpace=wrap;html=1;container=1;collapsible=0;recursiveResize=0;outlineConnect=0;" parent="1" vertex="1">
                    <mxGeometry x="750" y="80" width="100" height="720" as="geometry"/>
                </mxCell>
                <mxCell id="C7J_mc7ecOZr3gbci45p-41" value="" style="html=1;points=[];perimeter=orthogonalPerimeter;labelBackgroundColor=none;fontFamily=Helvetica;fontSize=11;fontColor=#000000;" parent="C7J_mc7ecOZr3gbci45p-28" vertex="1">
                    <mxGeometry x="45" y="400" width="10" height="80" as="geometry"/>
                </mxCell>
                <mxCell id="C7J_mc7ecOZr3gbci45p-33" value="{&lt;br&gt;&amp;nbsp; size,&lt;br&gt;&amp;nbsp; name,&lt;br&gt;&amp;nbsp; type,&lt;br&gt;&amp;nbsp; ext,&lt;br&gt;&amp;nbsp; key,&lt;br&gt;&amp;nbsp; previewUrl&lt;br&gt;}" style="text;strokeColor=none;fillColor=none;align=left;verticalAlign=middle;rounded=0;fontFamily=Courier New;fontSize=10;labelBackgroundColor=none;fontColor=#000000;whiteSpace=wrap;html=1;spacingTop=0;spacing=2;fontStyle=1" parent="1" vertex="1">
                    <mxGeometry x="820" y="470" width="80" height="110" as="geometry"/>
                </mxCell>
                <mxCell id="C7J_mc7ecOZr3gbci45p-42" value="Save to DB" style="html=1;verticalAlign=bottom;endArrow=block;entryX=0;entryY=0;rounded=0;fontFamily=Helvetica;fontSize=11;fontColor=#000000;" parent="1" source="C7J_mc7ecOZr3gbci45p-39" target="C7J_mc7ecOZr3gbci45p-41" edge="1">
                    <mxGeometry relative="1" as="geometry">
                        <mxPoint x="725" y="480" as="sourcePoint"/>
                    </mxGeometry>
                </mxCell>
                <mxCell id="C7J_mc7ecOZr3gbci45p-43" value="OK" style="html=1;verticalAlign=bottom;endArrow=open;dashed=1;endSize=8;exitX=0;exitY=0.95;rounded=0;fontFamily=Helvetica;fontSize=11;fontColor=#000000;" parent="1" source="C7J_mc7ecOZr3gbci45p-41" target="C7J_mc7ecOZr3gbci45p-39" edge="1">
                    <mxGeometry relative="1" as="geometry">
                        <mxPoint x="725" y="556" as="targetPoint"/>
                    </mxGeometry>
                </mxCell>
            </root>
        </mxGraphModel>
    </diagram>
    <diagram id="I6Si6-nEPtUrCelHRh-2" name="file-download">
        <mxGraphModel dx="1018" dy="684" grid="1" gridSize="10" guides="1" tooltips="1" connect="1" arrows="1" fold="1" page="1" pageScale="1" pageWidth="850" pageHeight="1100" math="0" shadow="0">
            <root>
                <mxCell id="aonwafBSVULUMNhKf7f6-0"/>
                <mxCell id="aonwafBSVULUMNhKf7f6-1" parent="aonwafBSVULUMNhKf7f6-0"/>
                <mxCell id="RIhyxyP-n8YZd0EY5qcV-0" value="Client" style="shape=umlLifeline;perimeter=lifelinePerimeter;whiteSpace=wrap;html=1;container=1;collapsible=0;recursiveResize=0;outlineConnect=0;" parent="aonwafBSVULUMNhKf7f6-1" vertex="1">
                    <mxGeometry x="190" y="80" width="100" height="720" as="geometry"/>
                </mxCell>
                <mxCell id="RIhyxyP-n8YZd0EY5qcV-1" value="" style="html=1;points=[];perimeter=orthogonalPerimeter;" parent="RIhyxyP-n8YZd0EY5qcV-0" vertex="1">
                    <mxGeometry x="45" y="40" width="10" height="560" as="geometry"/>
                </mxCell>
                <mxCell id="RIhyxyP-n8YZd0EY5qcV-2" value="Server" style="shape=umlLifeline;perimeter=lifelinePerimeter;whiteSpace=wrap;html=1;container=1;collapsible=0;recursiveResize=0;outlineConnect=0;" parent="aonwafBSVULUMNhKf7f6-1" vertex="1">
                    <mxGeometry x="390" y="80" width="100" height="720" as="geometry"/>
                </mxCell>
                <mxCell id="RIhyxyP-n8YZd0EY5qcV-3" value="" style="html=1;points=[];perimeter=orthogonalPerimeter;" parent="RIhyxyP-n8YZd0EY5qcV-2" vertex="1">
                    <mxGeometry x="45" y="80" width="10" height="80" as="geometry"/>
                </mxCell>
                <mxCell id="RIhyxyP-n8YZd0EY5qcV-4" value="" style="html=1;points=[];perimeter=orthogonalPerimeter;" parent="RIhyxyP-n8YZd0EY5qcV-2" vertex="1">
                    <mxGeometry x="45" y="320" width="10" height="240" as="geometry"/>
                </mxCell>
                <mxCell id="RIhyxyP-n8YZd0EY5qcV-7" value="AWS S3" style="shape=umlLifeline;perimeter=lifelinePerimeter;whiteSpace=wrap;html=1;container=1;collapsible=0;recursiveResize=0;outlineConnect=0;" parent="aonwafBSVULUMNhKf7f6-1" vertex="1">
                    <mxGeometry x="590" y="80" width="100" height="720" as="geometry"/>
                </mxCell>
                <mxCell id="RIhyxyP-n8YZd0EY5qcV-8" value="" style="html=1;points=[];perimeter=orthogonalPerimeter;" parent="RIhyxyP-n8YZd0EY5qcV-7" vertex="1">
                    <mxGeometry x="45" y="200" width="10" height="80" as="geometry"/>
                </mxCell>
                <mxCell id="RIhyxyP-n8YZd0EY5qcV-9" value="POST /predownload" style="html=1;verticalAlign=bottom;endArrow=block;entryX=0;entryY=0;rounded=0;" parent="aonwafBSVULUMNhKf7f6-1" source="RIhyxyP-n8YZd0EY5qcV-1" target="RIhyxyP-n8YZd0EY5qcV-3" edge="1">
                    <mxGeometry relative="1" as="geometry">
                        <mxPoint x="365" y="150" as="sourcePoint"/>
                    </mxGeometry>
                </mxCell>
                <mxCell id="RIhyxyP-n8YZd0EY5qcV-10" value="signedUrl" style="html=1;verticalAlign=bottom;endArrow=open;dashed=1;endSize=8;exitX=0;exitY=0.95;rounded=0;" parent="aonwafBSVULUMNhKf7f6-1" source="RIhyxyP-n8YZd0EY5qcV-3" target="RIhyxyP-n8YZd0EY5qcV-1" edge="1">
                    <mxGeometry relative="1" as="geometry">
                        <mxPoint x="365" y="226" as="targetPoint"/>
                    </mxGeometry>
                </mxCell>
                <mxCell id="RIhyxyP-n8YZd0EY5qcV-11" value="GET /:signedUrl" style="html=1;verticalAlign=bottom;endArrow=block;entryX=0;entryY=0;rounded=0;" parent="aonwafBSVULUMNhKf7f6-1" source="RIhyxyP-n8YZd0EY5qcV-1" target="RIhyxyP-n8YZd0EY5qcV-8" edge="1">
                    <mxGeometry relative="1" as="geometry">
                        <mxPoint x="565" y="280" as="sourcePoint"/>
                    </mxGeometry>
                </mxCell>
                <mxCell id="RIhyxyP-n8YZd0EY5qcV-12" value="OK" style="html=1;verticalAlign=bottom;endArrow=open;dashed=1;endSize=8;exitX=0;exitY=0.95;rounded=0;" parent="aonwafBSVULUMNhKf7f6-1" source="RIhyxyP-n8YZd0EY5qcV-8" target="RIhyxyP-n8YZd0EY5qcV-1" edge="1">
                    <mxGeometry relative="1" as="geometry">
                        <mxPoint x="565" y="356" as="targetPoint"/>
                    </mxGeometry>
                </mxCell>
                <mxCell id="RIhyxyP-n8YZd0EY5qcV-13" value="POST /postdownload" style="html=1;verticalAlign=bottom;endArrow=block;entryX=0;entryY=0;rounded=0;" parent="aonwafBSVULUMNhKf7f6-1" source="RIhyxyP-n8YZd0EY5qcV-1" target="RIhyxyP-n8YZd0EY5qcV-4" edge="1">
                    <mxGeometry relative="1" as="geometry">
                        <mxPoint x="365" y="400" as="sourcePoint"/>
                    </mxGeometry>
                </mxCell>
                <mxCell id="RIhyxyP-n8YZd0EY5qcV-14" value="OK" style="html=1;verticalAlign=bottom;endArrow=open;dashed=1;endSize=8;exitX=0;exitY=0.95;rounded=0;" parent="aonwafBSVULUMNhKf7f6-1" source="RIhyxyP-n8YZd0EY5qcV-4" target="RIhyxyP-n8YZd0EY5qcV-1" edge="1">
                    <mxGeometry relative="1" as="geometry">
                        <mxPoint x="365" y="476" as="targetPoint"/>
                    </mxGeometry>
                </mxCell>
                <mxCell id="RIhyxyP-n8YZd0EY5qcV-16" value="DB" style="shape=umlLifeline;perimeter=lifelinePerimeter;whiteSpace=wrap;html=1;container=1;collapsible=0;recursiveResize=0;outlineConnect=0;" parent="aonwafBSVULUMNhKf7f6-1" vertex="1">
                    <mxGeometry x="750" y="80" width="100" height="720" as="geometry"/>
                </mxCell>
                <mxCell id="RIhyxyP-n8YZd0EY5qcV-21" value="" style="html=1;points=[];perimeter=orthogonalPerimeter;labelBackgroundColor=none;fontFamily=Helvetica;fontSize=11;fontColor=#000000;" parent="RIhyxyP-n8YZd0EY5qcV-16" vertex="1">
                    <mxGeometry x="45" y="360" width="10" height="80" as="geometry"/>
                </mxCell>
                <mxCell id="RIhyxyP-n8YZd0EY5qcV-22" value="Add history record to space" style="html=1;verticalAlign=bottom;endArrow=block;entryX=0;entryY=0;rounded=0;fontFamily=Helvetica;fontSize=11;fontColor=#000000;" parent="aonwafBSVULUMNhKf7f6-1" source="RIhyxyP-n8YZd0EY5qcV-4" target="RIhyxyP-n8YZd0EY5qcV-21" edge="1">
                    <mxGeometry relative="1" as="geometry">
                        <mxPoint x="725" y="440" as="sourcePoint"/>
                    </mxGeometry>
                </mxCell>
                <mxCell id="RIhyxyP-n8YZd0EY5qcV-23" value="OK" style="html=1;verticalAlign=bottom;endArrow=open;dashed=1;endSize=8;exitX=0;exitY=0.95;rounded=0;fontFamily=Helvetica;fontSize=11;fontColor=#000000;" parent="aonwafBSVULUMNhKf7f6-1" source="RIhyxyP-n8YZd0EY5qcV-21" target="RIhyxyP-n8YZd0EY5qcV-2" edge="1">
                    <mxGeometry relative="1" as="geometry">
                        <mxPoint x="725" y="516" as="targetPoint"/>
                    </mxGeometry>
                </mxCell>
            </root>
        </mxGraphModel>
    </diagram>
    <diagram name="connected-clients" id="EP3xqaR8nTEOQqtWseWu">
        <mxGraphModel dx="718" dy="398" grid="1" gridSize="10" guides="1" tooltips="1" connect="1" arrows="1" fold="1" page="1" pageScale="1" pageWidth="850" pageHeight="1100" math="0" shadow="0">
            <root>
                <mxCell id="rfoNR72-MtNlVbpdPUuq-0"/>
                <mxCell id="rfoNR72-MtNlVbpdPUuq-1" parent="rfoNR72-MtNlVbpdPUuq-0"/>
                <mxCell id="rfoNR72-MtNlVbpdPUuq-2" value="Client" style="shape=umlLifeline;perimeter=lifelinePerimeter;whiteSpace=wrap;html=1;container=1;collapsible=0;recursiveResize=0;outlineConnect=0;" parent="rfoNR72-MtNlVbpdPUuq-1" vertex="1">
                    <mxGeometry x="230" y="80" width="100" height="800" as="geometry"/>
                </mxCell>
                <mxCell id="rfoNR72-MtNlVbpdPUuq-3" value="" style="html=1;points=[];perimeter=orthogonalPerimeter;" parent="rfoNR72-MtNlVbpdPUuq-2" vertex="1">
                    <mxGeometry x="45" y="280" width="10" height="400" as="geometry"/>
                </mxCell>
                <mxCell id="rfoNR72-MtNlVbpdPUuq-4" value="Server" style="shape=umlLifeline;perimeter=lifelinePerimeter;whiteSpace=wrap;html=1;container=1;collapsible=0;recursiveResize=0;outlineConnect=0;" parent="rfoNR72-MtNlVbpdPUuq-1" vertex="1">
                    <mxGeometry x="430" y="80" width="100" height="800" as="geometry"/>
                </mxCell>
                <mxCell id="rfoNR72-MtNlVbpdPUuq-21" value="" style="html=1;points=[];perimeter=orthogonalPerimeter;" parent="rfoNR72-MtNlVbpdPUuq-4" vertex="1">
                    <mxGeometry x="45" y="80" width="10" height="120" as="geometry"/>
                </mxCell>
                <mxCell id="rfoNR72-MtNlVbpdPUuq-27" value="" style="html=1;points=[];perimeter=orthogonalPerimeter;" parent="rfoNR72-MtNlVbpdPUuq-4" vertex="1">
                    <mxGeometry x="45" y="320" width="10" height="160" as="geometry"/>
                </mxCell>
                <mxCell id="rfoNR72-MtNlVbpdPUuq-38" value="" style="html=1;points=[];perimeter=orthogonalPerimeter;" parent="rfoNR72-MtNlVbpdPUuq-4" vertex="1">
                    <mxGeometry x="45" y="520" width="10" height="160" as="geometry"/>
                </mxCell>
                <mxCell id="rfoNR72-MtNlVbpdPUuq-15" value="DB" style="shape=umlLifeline;perimeter=lifelinePerimeter;whiteSpace=wrap;html=1;container=1;collapsible=0;recursiveResize=0;outlineConnect=0;" parent="rfoNR72-MtNlVbpdPUuq-1" vertex="1">
                    <mxGeometry x="630" y="80" width="100" height="800" as="geometry"/>
                </mxCell>
                <mxCell id="rfoNR72-MtNlVbpdPUuq-24" value="" style="html=1;points=[];perimeter=orthogonalPerimeter;" parent="rfoNR72-MtNlVbpdPUuq-15" vertex="1">
                    <mxGeometry x="45" y="120" width="10" height="40" as="geometry"/>
                </mxCell>
                <mxCell id="rfoNR72-MtNlVbpdPUuq-30" value="" style="html=1;points=[];perimeter=orthogonalPerimeter;" parent="rfoNR72-MtNlVbpdPUuq-15" vertex="1">
                    <mxGeometry x="45" y="360" width="10" height="40" as="geometry"/>
                </mxCell>
                <mxCell id="rfoNR72-MtNlVbpdPUuq-40" value="" style="html=1;points=[];perimeter=orthogonalPerimeter;" parent="rfoNR72-MtNlVbpdPUuq-15" vertex="1">
                    <mxGeometry x="45" y="560" width="10" height="40" as="geometry"/>
                </mxCell>
                <mxCell id="rfoNR72-MtNlVbpdPUuq-19" value="Client" style="shape=umlLifeline;perimeter=lifelinePerimeter;whiteSpace=wrap;html=1;container=1;collapsible=0;recursiveResize=0;outlineConnect=0;" parent="rfoNR72-MtNlVbpdPUuq-1" vertex="1">
                    <mxGeometry x="30" y="80" width="100" height="800" as="geometry"/>
                </mxCell>
                <mxCell id="rfoNR72-MtNlVbpdPUuq-20" value="" style="html=1;points=[];perimeter=orthogonalPerimeter;" parent="rfoNR72-MtNlVbpdPUuq-19" vertex="1">
                    <mxGeometry x="45" y="40" width="10" height="480" as="geometry"/>
                </mxCell>
                <mxCell id="rfoNR72-MtNlVbpdPUuq-22" value="join space" style="html=1;verticalAlign=bottom;endArrow=block;entryX=0;entryY=0;rounded=0;" parent="rfoNR72-MtNlVbpdPUuq-1" source="rfoNR72-MtNlVbpdPUuq-20" target="rfoNR72-MtNlVbpdPUuq-21" edge="1">
                    <mxGeometry relative="1" as="geometry">
                        <mxPoint x="405" y="160" as="sourcePoint"/>
                    </mxGeometry>
                </mxCell>
                <mxCell id="rfoNR72-MtNlVbpdPUuq-23" value="OK" style="html=1;verticalAlign=bottom;endArrow=open;dashed=1;endSize=8;exitX=0;exitY=0.95;rounded=0;" parent="rfoNR72-MtNlVbpdPUuq-1" source="rfoNR72-MtNlVbpdPUuq-21" target="rfoNR72-MtNlVbpdPUuq-20" edge="1">
                    <mxGeometry relative="1" as="geometry">
                        <mxPoint x="405" y="236" as="targetPoint"/>
                    </mxGeometry>
                </mxCell>
                <mxCell id="rfoNR72-MtNlVbpdPUuq-25" value="save user" style="html=1;verticalAlign=bottom;endArrow=block;entryX=0;entryY=0;rounded=0;" parent="rfoNR72-MtNlVbpdPUuq-1" source="rfoNR72-MtNlVbpdPUuq-21" target="rfoNR72-MtNlVbpdPUuq-24" edge="1">
                    <mxGeometry relative="1" as="geometry">
                        <mxPoint x="605" y="200" as="sourcePoint"/>
                    </mxGeometry>
                </mxCell>
                <mxCell id="rfoNR72-MtNlVbpdPUuq-26" value="OK" style="html=1;verticalAlign=bottom;endArrow=open;dashed=1;endSize=8;exitX=0;exitY=0.95;rounded=0;" parent="rfoNR72-MtNlVbpdPUuq-1" source="rfoNR72-MtNlVbpdPUuq-24" target="rfoNR72-MtNlVbpdPUuq-21" edge="1">
                    <mxGeometry relative="1" as="geometry">
                        <mxPoint x="605" y="276" as="targetPoint"/>
                    </mxGeometry>
                </mxCell>
                <mxCell id="rfoNR72-MtNlVbpdPUuq-28" value="dispatch" style="html=1;verticalAlign=bottom;endArrow=block;entryX=0;entryY=0;rounded=0;" parent="rfoNR72-MtNlVbpdPUuq-1" source="rfoNR72-MtNlVbpdPUuq-3" target="rfoNR72-MtNlVbpdPUuq-27" edge="1">
                    <mxGeometry relative="1" as="geometry">
                        <mxPoint x="405" y="400" as="sourcePoint"/>
                    </mxGeometry>
                </mxCell>
                <mxCell id="rfoNR72-MtNlVbpdPUuq-29" value="return" style="html=1;verticalAlign=bottom;endArrow=open;dashed=1;endSize=8;exitX=0;exitY=0.95;rounded=0;" parent="rfoNR72-MtNlVbpdPUuq-1" source="rfoNR72-MtNlVbpdPUuq-27" target="rfoNR72-MtNlVbpdPUuq-2" edge="1">
                    <mxGeometry relative="1" as="geometry">
                        <mxPoint x="405" y="476" as="targetPoint"/>
                    </mxGeometry>
                </mxCell>
                <mxCell id="rfoNR72-MtNlVbpdPUuq-31" value="save user" style="html=1;verticalAlign=bottom;endArrow=block;entryX=0;entryY=0;rounded=0;" parent="rfoNR72-MtNlVbpdPUuq-1" source="rfoNR72-MtNlVbpdPUuq-27" target="rfoNR72-MtNlVbpdPUuq-30" edge="1">
                    <mxGeometry relative="1" as="geometry">
                        <mxPoint x="605" y="440" as="sourcePoint"/>
                    </mxGeometry>
                </mxCell>
                <mxCell id="rfoNR72-MtNlVbpdPUuq-32" value="OK" style="html=1;verticalAlign=bottom;endArrow=open;dashed=1;endSize=8;exitX=0;exitY=0.95;rounded=0;" parent="rfoNR72-MtNlVbpdPUuq-1" source="rfoNR72-MtNlVbpdPUuq-30" target="rfoNR72-MtNlVbpdPUuq-27" edge="1">
                    <mxGeometry relative="1" as="geometry">
                        <mxPoint x="605" y="516" as="targetPoint"/>
                    </mxGeometry>
                </mxCell>
                <mxCell id="rfoNR72-MtNlVbpdPUuq-35" value="Broadcast: New User Joined" style="html=1;verticalAlign=bottom;startArrow=oval;startFill=1;endArrow=block;startSize=8;rounded=0;" parent="rfoNR72-MtNlVbpdPUuq-1" source="rfoNR72-MtNlVbpdPUuq-27" target="rfoNR72-MtNlVbpdPUuq-20" edge="1">
                    <mxGeometry width="60" relative="1" as="geometry">
                        <mxPoint x="170" y="500" as="sourcePoint"/>
                        <mxPoint x="230" y="500" as="targetPoint"/>
                        <Array as="points">
                            <mxPoint x="300" y="520"/>
                        </Array>
                    </mxGeometry>
                </mxCell>
                <mxCell id="rfoNR72-MtNlVbpdPUuq-39" value="Terminate session" style="html=1;verticalAlign=bottom;startArrow=oval;endArrow=block;startSize=8;rounded=0;" parent="rfoNR72-MtNlVbpdPUuq-1" source="rfoNR72-MtNlVbpdPUuq-20" target="rfoNR72-MtNlVbpdPUuq-38" edge="1">
                    <mxGeometry relative="1" as="geometry">
                        <mxPoint x="415" y="600" as="sourcePoint"/>
                    </mxGeometry>
                </mxCell>
                <mxCell id="rfoNR72-MtNlVbpdPUuq-41" value="remove user from space" style="html=1;verticalAlign=bottom;endArrow=block;entryX=0;entryY=0;rounded=0;" parent="rfoNR72-MtNlVbpdPUuq-1" source="rfoNR72-MtNlVbpdPUuq-38" target="rfoNR72-MtNlVbpdPUuq-40" edge="1">
                    <mxGeometry relative="1" as="geometry">
                        <mxPoint x="605" y="640" as="sourcePoint"/>
                    </mxGeometry>
                </mxCell>
                <mxCell id="rfoNR72-MtNlVbpdPUuq-42" value="OK" style="html=1;verticalAlign=bottom;endArrow=open;dashed=1;endSize=8;exitX=0;exitY=0.95;rounded=0;" parent="rfoNR72-MtNlVbpdPUuq-1" source="rfoNR72-MtNlVbpdPUuq-40" target="rfoNR72-MtNlVbpdPUuq-38" edge="1">
                    <mxGeometry relative="1" as="geometry">
                        <mxPoint x="605" y="716" as="targetPoint"/>
                    </mxGeometry>
                </mxCell>
                <mxCell id="rfoNR72-MtNlVbpdPUuq-43" value="Broadcast: User left" style="html=1;verticalAlign=bottom;startArrow=oval;startFill=1;endArrow=block;startSize=8;rounded=0;" parent="rfoNR72-MtNlVbpdPUuq-1" source="rfoNR72-MtNlVbpdPUuq-38" target="rfoNR72-MtNlVbpdPUuq-3" edge="1">
                    <mxGeometry width="60" relative="1" as="geometry">
                        <mxPoint x="160" y="730" as="sourcePoint"/>
                        <mxPoint x="220" y="730" as="targetPoint"/>
                        <Array as="points">
                            <mxPoint x="380" y="720"/>
                        </Array>
                    </mxGeometry>
                </mxCell>
            </root>
        </mxGraphModel>
    </diagram>
    <diagram id="I4xYnY6aWIoINWiBxGki" name="endpoint-access">
        <mxGraphModel dx="718" dy="398" grid="1" gridSize="10" guides="1" tooltips="1" connect="1" arrows="1" fold="1" page="1" pageScale="1" pageWidth="850" pageHeight="1100" math="0" shadow="0">
            <root>
                <mxCell id="S3E0U3elf0EEWvmh8YvW-0"/>
                <mxCell id="S3E0U3elf0EEWvmh8YvW-1" parent="S3E0U3elf0EEWvmh8YvW-0"/>
                <mxCell id="S3E0U3elf0EEWvmh8YvW-8" style="edgeStyle=orthogonalEdgeStyle;rounded=0;orthogonalLoop=1;jettySize=auto;html=1;" parent="S3E0U3elf0EEWvmh8YvW-1" source="S3E0U3elf0EEWvmh8YvW-2" target="S3E0U3elf0EEWvmh8YvW-6" edge="1">
                    <mxGeometry relative="1" as="geometry"/>
                </mxCell>
                <mxCell id="S3E0U3elf0EEWvmh8YvW-19" style="edgeStyle=orthogonalEdgeStyle;rounded=0;orthogonalLoop=1;jettySize=auto;html=1;" parent="S3E0U3elf0EEWvmh8YvW-1" source="S3E0U3elf0EEWvmh8YvW-2" target="S3E0U3elf0EEWvmh8YvW-16" edge="1">
                    <mxGeometry relative="1" as="geometry"/>
                </mxCell>
                <mxCell id="S3E0U3elf0EEWvmh8YvW-20" value="References" style="edgeLabel;html=1;align=center;verticalAlign=middle;resizable=0;points=[];" parent="S3E0U3elf0EEWvmh8YvW-19" vertex="1" connectable="0">
                    <mxGeometry x="-0.2583" relative="1" as="geometry">
                        <mxPoint x="19" y="-10" as="offset"/>
                    </mxGeometry>
                </mxCell>
                <mxCell id="S3E0U3elf0EEWvmh8YvW-2" value="Web App" style="rounded=0;whiteSpace=wrap;html=1;" parent="S3E0U3elf0EEWvmh8YvW-1" vertex="1">
                    <mxGeometry x="260" y="130" width="120" height="60" as="geometry"/>
                </mxCell>
                <mxCell id="S3E0U3elf0EEWvmh8YvW-12" style="edgeStyle=orthogonalEdgeStyle;rounded=0;orthogonalLoop=1;jettySize=auto;html=1;" parent="S3E0U3elf0EEWvmh8YvW-1" source="S3E0U3elf0EEWvmh8YvW-3" target="S3E0U3elf0EEWvmh8YvW-5" edge="1">
                    <mxGeometry relative="1" as="geometry">
                        <Array as="points">
                            <mxPoint x="480" y="220"/>
                            <mxPoint x="480" y="220"/>
                        </Array>
                    </mxGeometry>
                </mxCell>
                <mxCell id="S3E0U3elf0EEWvmh8YvW-3" value="CLI" style="rounded=0;whiteSpace=wrap;html=1;" parent="S3E0U3elf0EEWvmh8YvW-1" vertex="1">
                    <mxGeometry x="420" y="130" width="120" height="60" as="geometry"/>
                </mxCell>
                <mxCell id="S3E0U3elf0EEWvmh8YvW-15" style="edgeStyle=orthogonalEdgeStyle;rounded=0;orthogonalLoop=1;jettySize=auto;html=1;" parent="S3E0U3elf0EEWvmh8YvW-1" source="S3E0U3elf0EEWvmh8YvW-5" target="S3E0U3elf0EEWvmh8YvW-7" edge="1">
                    <mxGeometry relative="1" as="geometry">
                        <Array as="points">
                            <mxPoint x="560" y="350"/>
                            <mxPoint x="560" y="350"/>
                        </Array>
                    </mxGeometry>
                </mxCell>
                <mxCell id="S3E0U3elf0EEWvmh8YvW-5" value="REST Layer" style="rounded=0;whiteSpace=wrap;html=1;" parent="S3E0U3elf0EEWvmh8YvW-1" vertex="1">
                    <mxGeometry x="420" y="250" width="280" height="60" as="geometry"/>
                </mxCell>
                <mxCell id="S3E0U3elf0EEWvmh8YvW-14" style="edgeStyle=orthogonalEdgeStyle;rounded=0;orthogonalLoop=1;jettySize=auto;html=1;" parent="S3E0U3elf0EEWvmh8YvW-1" source="S3E0U3elf0EEWvmh8YvW-6" target="S3E0U3elf0EEWvmh8YvW-7" edge="1">
                    <mxGeometry relative="1" as="geometry">
                        <Array as="points">
                            <mxPoint x="320" y="340"/>
                            <mxPoint x="320" y="340"/>
                        </Array>
                    </mxGeometry>
                </mxCell>
                <mxCell id="S3E0U3elf0EEWvmh8YvW-6" value="RPC Layer" style="rounded=0;whiteSpace=wrap;html=1;" parent="S3E0U3elf0EEWvmh8YvW-1" vertex="1">
                    <mxGeometry x="260" y="250" width="120" height="60" as="geometry"/>
                </mxCell>
                <mxCell id="S3E0U3elf0EEWvmh8YvW-18" style="edgeStyle=orthogonalEdgeStyle;rounded=0;orthogonalLoop=1;jettySize=auto;html=1;" parent="S3E0U3elf0EEWvmh8YvW-1" source="S3E0U3elf0EEWvmh8YvW-7" target="S3E0U3elf0EEWvmh8YvW-16" edge="1">
                    <mxGeometry relative="1" as="geometry"/>
                </mxCell>
                <mxCell id="S3E0U3elf0EEWvmh8YvW-21" value="Must implement" style="edgeLabel;html=1;align=center;verticalAlign=middle;resizable=0;points=[];" parent="S3E0U3elf0EEWvmh8YvW-18" vertex="1" connectable="0">
                    <mxGeometry x="-0.23" relative="1" as="geometry">
                        <mxPoint x="17" y="10" as="offset"/>
                    </mxGeometry>
                </mxCell>
                <mxCell id="S3E0U3elf0EEWvmh8YvW-7" value="Service Layer" style="rounded=0;whiteSpace=wrap;html=1;" parent="S3E0U3elf0EEWvmh8YvW-1" vertex="1">
                    <mxGeometry x="260" y="370" width="440" height="60" as="geometry"/>
                </mxCell>
                <mxCell id="S3E0U3elf0EEWvmh8YvW-13" style="edgeStyle=orthogonalEdgeStyle;rounded=0;orthogonalLoop=1;jettySize=auto;html=1;startArrow=none;" parent="S3E0U3elf0EEWvmh8YvW-1" source="S3E0U3elf0EEWvmh8YvW-4" edge="1">
                    <mxGeometry relative="1" as="geometry">
                        <mxPoint x="639.5" y="150" as="sourcePoint"/>
                        <mxPoint x="639.5" y="250" as="targetPoint"/>
                        <Array as="points">
                            <mxPoint x="639.5" y="220"/>
                            <mxPoint x="639.5" y="220"/>
                        </Array>
                    </mxGeometry>
                </mxCell>
                <mxCell id="S3E0U3elf0EEWvmh8YvW-16" value="Method Signatures" style="ellipse;whiteSpace=wrap;html=1;" parent="S3E0U3elf0EEWvmh8YvW-1" vertex="1">
                    <mxGeometry x="80" y="240" width="120" height="80" as="geometry"/>
                </mxCell>
                <mxCell id="S3E0U3elf0EEWvmh8YvW-4" value="iOS App" style="rounded=0;whiteSpace=wrap;html=1;" parent="S3E0U3elf0EEWvmh8YvW-1" vertex="1">
                    <mxGeometry x="580" y="130" width="120" height="60" as="geometry"/>
                </mxCell>
            </root>
        </mxGraphModel>
    </diagram>
    <diagram id="THtNYgxrHpnKHoNYS6oU" name="package-dependencies">
        <mxGraphModel dx="718" dy="398" grid="1" gridSize="10" guides="1" tooltips="1" connect="1" arrows="1" fold="1" page="1" pageScale="1" pageWidth="850" pageHeight="1100" math="0" shadow="0">
            <root>
                <mxCell id="A8Sb9OdYXHPeTzRyBA_y-0"/>
                <mxCell id="A8Sb9OdYXHPeTzRyBA_y-1" parent="A8Sb9OdYXHPeTzRyBA_y-0"/>
                <mxCell id="A8Sb9OdYXHPeTzRyBA_y-2" value="ui" style="ellipse;whiteSpace=wrap;html=1;" parent="A8Sb9OdYXHPeTzRyBA_y-1" vertex="1">
                    <mxGeometry x="280" y="400" width="120" height="80" as="geometry"/>
                </mxCell>
                <mxCell id="A8Sb9OdYXHPeTzRyBA_y-7" style="rounded=0;orthogonalLoop=1;jettySize=auto;html=1;" parent="A8Sb9OdYXHPeTzRyBA_y-1" source="A8Sb9OdYXHPeTzRyBA_y-3" target="A8Sb9OdYXHPeTzRyBA_y-2" edge="1">
                    <mxGeometry relative="1" as="geometry"/>
                </mxCell>
                <mxCell id="A8Sb9OdYXHPeTzRyBA_y-9" style="edgeStyle=none;rounded=0;orthogonalLoop=1;jettySize=auto;html=1;" parent="A8Sb9OdYXHPeTzRyBA_y-1" source="A8Sb9OdYXHPeTzRyBA_y-3" target="A8Sb9OdYXHPeTzRyBA_y-6" edge="1">
                    <mxGeometry relative="1" as="geometry"/>
                </mxCell>
                <mxCell id="A8Sb9OdYXHPeTzRyBA_y-3" value="client" style="ellipse;whiteSpace=wrap;html=1;" parent="A8Sb9OdYXHPeTzRyBA_y-1" vertex="1">
                    <mxGeometry x="365" y="280" width="120" height="80" as="geometry"/>
                </mxCell>
                <mxCell id="A8Sb9OdYXHPeTzRyBA_y-8" style="edgeStyle=none;rounded=0;orthogonalLoop=1;jettySize=auto;html=1;" parent="A8Sb9OdYXHPeTzRyBA_y-1" source="A8Sb9OdYXHPeTzRyBA_y-4" target="A8Sb9OdYXHPeTzRyBA_y-6" edge="1">
                    <mxGeometry relative="1" as="geometry"/>
                </mxCell>
                <mxCell id="A8Sb9OdYXHPeTzRyBA_y-4" value="server" style="ellipse;whiteSpace=wrap;html=1;" parent="A8Sb9OdYXHPeTzRyBA_y-1" vertex="1">
                    <mxGeometry x="520" y="280" width="120" height="80" as="geometry"/>
                </mxCell>
                <mxCell id="A8Sb9OdYXHPeTzRyBA_y-10" style="edgeStyle=none;rounded=0;orthogonalLoop=1;jettySize=auto;html=1;" parent="A8Sb9OdYXHPeTzRyBA_y-1" source="A8Sb9OdYXHPeTzRyBA_y-5" target="A8Sb9OdYXHPeTzRyBA_y-2" edge="1">
                    <mxGeometry relative="1" as="geometry"/>
                </mxCell>
                <mxCell id="A8Sb9OdYXHPeTzRyBA_y-5" value="landing" style="ellipse;whiteSpace=wrap;html=1;" parent="A8Sb9OdYXHPeTzRyBA_y-1" vertex="1">
                    <mxGeometry x="200" y="280" width="120" height="80" as="geometry"/>
                </mxCell>
                <mxCell id="A8Sb9OdYXHPeTzRyBA_y-6" value="types" style="ellipse;whiteSpace=wrap;html=1;" parent="A8Sb9OdYXHPeTzRyBA_y-1" vertex="1">
                    <mxGeometry x="440" y="400" width="120" height="80" as="geometry"/>
                </mxCell>
            </root>
        </mxGraphModel>
    </diagram>
    <diagram id="nhFLVlbSNKZjScq1ZlBf" name="deploys">
        <mxGraphModel dx="898" dy="498" grid="1" gridSize="10" guides="1" tooltips="1" connect="1" arrows="1" fold="1" page="1" pageScale="1" pageWidth="850" pageHeight="1100" math="0" shadow="0">
            <root>
                <mxCell id="Ltu_tqqzZqY9Rdd7ypGq-0"/>
                <mxCell id="Ltu_tqqzZqY9Rdd7ypGq-1" parent="Ltu_tqqzZqY9Rdd7ypGq-0"/>
                <mxCell id="Ltu_tqqzZqY9Rdd7ypGq-5" value="production" style="rounded=0;whiteSpace=wrap;html=1;" vertex="1" parent="Ltu_tqqzZqY9Rdd7ypGq-1">
                    <mxGeometry x="180" y="110" width="120" height="60" as="geometry"/>
                </mxCell>
                <mxCell id="Ltu_tqqzZqY9Rdd7ypGq-9" value="server" style="rounded=0;whiteSpace=wrap;html=1;" vertex="1" parent="Ltu_tqqzZqY9Rdd7ypGq-1">
                    <mxGeometry x="610" y="460" width="120" height="60" as="geometry"/>
                </mxCell>
                <mxCell id="Ltu_tqqzZqY9Rdd7ypGq-22" style="edgeStyle=none;html=1;entryX=0;entryY=0.5;entryDx=0;entryDy=0;" edge="1" parent="Ltu_tqqzZqY9Rdd7ypGq-1" source="Ltu_tqqzZqY9Rdd7ypGq-13" target="Ltu_tqqzZqY9Rdd7ypGq-9">
                    <mxGeometry relative="1" as="geometry"/>
                </mxCell>
                <mxCell id="Ltu_tqqzZqY9Rdd7ypGq-13" value="5000" style="rounded=0;whiteSpace=wrap;html=1;" vertex="1" parent="Ltu_tqqzZqY9Rdd7ypGq-1">
                    <mxGeometry x="460" y="470" width="60" height="40" as="geometry"/>
                </mxCell>
                <mxCell id="Ltu_tqqzZqY9Rdd7ypGq-14" value="client" style="rounded=0;whiteSpace=wrap;html=1;" vertex="1" parent="Ltu_tqqzZqY9Rdd7ypGq-1">
                    <mxGeometry x="610" y="400" width="120" height="60" as="geometry"/>
                </mxCell>
                <mxCell id="Ltu_tqqzZqY9Rdd7ypGq-15" value="landing" style="rounded=0;whiteSpace=wrap;html=1;" vertex="1" parent="Ltu_tqqzZqY9Rdd7ypGq-1">
                    <mxGeometry x="610" y="520" width="120" height="60" as="geometry"/>
                </mxCell>
                <mxCell id="Ltu_tqqzZqY9Rdd7ypGq-23" style="edgeStyle=none;html=1;entryX=0;entryY=0.5;entryDx=0;entryDy=0;" edge="1" parent="Ltu_tqqzZqY9Rdd7ypGq-1" source="Ltu_tqqzZqY9Rdd7ypGq-16" target="Ltu_tqqzZqY9Rdd7ypGq-15">
                    <mxGeometry relative="1" as="geometry"/>
                </mxCell>
                <mxCell id="Ltu_tqqzZqY9Rdd7ypGq-16" value="5001" style="rounded=0;whiteSpace=wrap;html=1;" vertex="1" parent="Ltu_tqqzZqY9Rdd7ypGq-1">
                    <mxGeometry x="460" y="530" width="60" height="40" as="geometry"/>
                </mxCell>
                <mxCell id="Ltu_tqqzZqY9Rdd7ypGq-18" style="edgeStyle=none;html=1;entryX=0;entryY=0.5;entryDx=0;entryDy=0;" edge="1" parent="Ltu_tqqzZqY9Rdd7ypGq-1" source="Ltu_tqqzZqY9Rdd7ypGq-17" target="Ltu_tqqzZqY9Rdd7ypGq-13">
                    <mxGeometry relative="1" as="geometry"/>
                </mxCell>
                <mxCell id="Ltu_tqqzZqY9Rdd7ypGq-20" value="prod.app.floatingfile.space" style="edgeLabel;html=1;align=center;verticalAlign=middle;resizable=0;points=[];" vertex="1" connectable="0" parent="Ltu_tqqzZqY9Rdd7ypGq-18">
                    <mxGeometry x="-0.0347" y="-1" relative="1" as="geometry">
                        <mxPoint as="offset"/>
                    </mxGeometry>
                </mxCell>
                <mxCell id="Ltu_tqqzZqY9Rdd7ypGq-19" style="edgeStyle=none;html=1;entryX=0;entryY=0.5;entryDx=0;entryDy=0;" edge="1" parent="Ltu_tqqzZqY9Rdd7ypGq-1" source="Ltu_tqqzZqY9Rdd7ypGq-17" target="Ltu_tqqzZqY9Rdd7ypGq-16">
                    <mxGeometry relative="1" as="geometry"/>
                </mxCell>
                <mxCell id="Ltu_tqqzZqY9Rdd7ypGq-21" value="prod.floatingfile.space" style="edgeLabel;html=1;align=center;verticalAlign=middle;resizable=0;points=[];" vertex="1" connectable="0" parent="Ltu_tqqzZqY9Rdd7ypGq-19">
                    <mxGeometry x="-0.0342" relative="1" as="geometry">
                        <mxPoint as="offset"/>
                    </mxGeometry>
                </mxCell>
                <mxCell id="Ltu_tqqzZqY9Rdd7ypGq-31" style="edgeStyle=none;html=1;entryX=0;entryY=0.5;entryDx=0;entryDy=0;" edge="1" parent="Ltu_tqqzZqY9Rdd7ypGq-1" source="Ltu_tqqzZqY9Rdd7ypGq-17" target="Ltu_tqqzZqY9Rdd7ypGq-29">
                    <mxGeometry relative="1" as="geometry"/>
                </mxCell>
                <mxCell id="Ltu_tqqzZqY9Rdd7ypGq-35" value="staging.floatingfile.space" style="edgeLabel;html=1;align=center;verticalAlign=middle;resizable=0;points=[];" vertex="1" connectable="0" parent="Ltu_tqqzZqY9Rdd7ypGq-31">
                    <mxGeometry x="0.0171" y="2" relative="1" as="geometry">
                        <mxPoint as="offset"/>
                    </mxGeometry>
                </mxCell>
                <mxCell id="Ltu_tqqzZqY9Rdd7ypGq-32" style="edgeStyle=none;html=1;entryX=0;entryY=0.5;entryDx=0;entryDy=0;" edge="1" parent="Ltu_tqqzZqY9Rdd7ypGq-1" source="Ltu_tqqzZqY9Rdd7ypGq-17" target="Ltu_tqqzZqY9Rdd7ypGq-30">
                    <mxGeometry relative="1" as="geometry"/>
                </mxCell>
                <mxCell id="Ltu_tqqzZqY9Rdd7ypGq-37" value="staging.app.floatingfile.space" style="edgeLabel;html=1;align=center;verticalAlign=middle;resizable=0;points=[];" vertex="1" connectable="0" parent="Ltu_tqqzZqY9Rdd7ypGq-32">
                    <mxGeometry x="0.0083" y="-2" relative="1" as="geometry">
                        <mxPoint as="offset"/>
                    </mxGeometry>
                </mxCell>
                <mxCell id="Ltu_tqqzZqY9Rdd7ypGq-17" value="nginx" style="rounded=0;whiteSpace=wrap;html=1;" vertex="1" parent="Ltu_tqqzZqY9Rdd7ypGq-1">
                    <mxGeometry x="140" y="630" width="120" height="60" as="geometry"/>
                </mxCell>
                <mxCell id="Ltu_tqqzZqY9Rdd7ypGq-26" value="server" style="rounded=0;whiteSpace=wrap;html=1;" vertex="1" parent="Ltu_tqqzZqY9Rdd7ypGq-1">
                    <mxGeometry x="610" y="680" width="120" height="60" as="geometry"/>
                </mxCell>
                <mxCell id="Ltu_tqqzZqY9Rdd7ypGq-27" value="client" style="rounded=0;whiteSpace=wrap;html=1;" vertex="1" parent="Ltu_tqqzZqY9Rdd7ypGq-1">
                    <mxGeometry x="610" y="620" width="120" height="60" as="geometry"/>
                </mxCell>
                <mxCell id="Ltu_tqqzZqY9Rdd7ypGq-28" value="landing" style="rounded=0;whiteSpace=wrap;html=1;" vertex="1" parent="Ltu_tqqzZqY9Rdd7ypGq-1">
                    <mxGeometry x="610" y="740" width="120" height="60" as="geometry"/>
                </mxCell>
                <mxCell id="Ltu_tqqzZqY9Rdd7ypGq-33" style="edgeStyle=none;html=1;entryX=0;entryY=0.5;entryDx=0;entryDy=0;" edge="1" parent="Ltu_tqqzZqY9Rdd7ypGq-1" source="Ltu_tqqzZqY9Rdd7ypGq-29" target="Ltu_tqqzZqY9Rdd7ypGq-26">
                    <mxGeometry relative="1" as="geometry"/>
                </mxCell>
                <mxCell id="Ltu_tqqzZqY9Rdd7ypGq-29" value="6000" style="rounded=0;whiteSpace=wrap;html=1;" vertex="1" parent="Ltu_tqqzZqY9Rdd7ypGq-1">
                    <mxGeometry x="460" y="690" width="60" height="40" as="geometry"/>
                </mxCell>
                <mxCell id="Ltu_tqqzZqY9Rdd7ypGq-34" style="edgeStyle=none;html=1;entryX=0;entryY=0.5;entryDx=0;entryDy=0;" edge="1" parent="Ltu_tqqzZqY9Rdd7ypGq-1" source="Ltu_tqqzZqY9Rdd7ypGq-30" target="Ltu_tqqzZqY9Rdd7ypGq-28">
                    <mxGeometry relative="1" as="geometry"/>
                </mxCell>
                <mxCell id="Ltu_tqqzZqY9Rdd7ypGq-30" value="6001" style="rounded=0;whiteSpace=wrap;html=1;" vertex="1" parent="Ltu_tqqzZqY9Rdd7ypGq-1">
                    <mxGeometry x="460" y="750" width="60" height="40" as="geometry"/>
                </mxCell>
            </root>
        </mxGraphModel>
    </diagram>
</mxfile>